<svg width="102" height="34" xmlns="http://www.w3.org/2000/svg"><path d="M19.27 21.381c-.1-2.685-.502-5.27-.502-7.956 0-2.187.401-4.375-.4-6.464 0-.199.1-.497.1-.696.2-.994-3.31-.497-3.81.497-.301.299-.502.597-.401.995 0 .1.1.199.1.298-.702 3.183-1.604 6.265-2.607 9.348-.4 1.194-.902 2.288-1.303 3.481-.602-1.094-1.203-2.188-1.604-3.381-1.404-3.381-2.607-6.862-4.311-10.144.2-1.492-3.208-1.392-3.91 0C-.18 9.05-.08 10.74.221 12.53c.3 1.99.401 3.978.401 6.067 0 3.978.401 7.856.401 11.834-.401.398-.501.895-.1 1.392.2.2.4.398.601.498 1.003.696 3.61.099 3.61-1.293 0-4.078-.301-8.155-.402-12.332v-1.193c.1.1.1.298.2.398.602 1.59 1.304 3.182 2.207 4.674.902 1.491 1.303 3.082 1.804 4.674-.2.199-.3.497-.2.696 0 .199.1.298.3.398.602.497 1.805.298 2.507 0 .3-.1.601-.299.802-.398.3-.2.902-.696.702-1.194 0-.099-.1-.198-.1-.298.5-1.293.701-2.585 1.002-3.878.3-1.393.802-2.785 1.303-4.078.1.597.1 1.194.2 1.89.201 2.585 0 5.072 0 7.558 0 .795.1 1.591.201 2.486.1.298.401 1.79.3 1.89-.801.497-.6 1.093.201 1.292.903.2 2.106-.1 2.808-.696 1.203-1.094.601-2.784.4-4.177-.5-2.386 0-4.972-.1-7.359ZM27.69 22.077c-.1-1.989-.801-3.878-.801-5.867 0-2.287.2-4.575-.2-6.862-.101-.696-4.111.1-3.91.995.3 2.088.2 4.176.2 6.364 0 1.99.501 3.879.701 5.868.301 2.088-.1 4.176.1 6.165.101.995.803 2.686.101 3.58-.401.498 1.504.299 1.604.299.802-.1 1.805-.398 2.306-.995.702-.795.2-2.386.1-3.38-.3-1.99-.1-4.178-.2-6.167ZM44.032 18.796c-2.105-2.785-5.915-.796-8.622-1.492-1.403-.398-1.403-2.287-1.403-3.381 0-1.392-.1-2.685-.301-4.077-.1-1.094 0-2.089.702-2.884.1-.1.902-.299.802-.299.4-.1.702-.1 1.103-.1 1.503-.099 4.611.2 4.01 2.487-.3.994 3.609.398 3.91-.597 1.203-4.574-7.319-3.68-9.725-3.083-2.206.597-4.612 1.79-4.812 4.376-.1 1.194.3 2.387.3 3.58.1 1.393-.2 2.785.301 4.078 1.103 2.983 5.514 1.59 7.82 1.69 3.81.299 2.707 5.47 2.707 7.857 0 1.292 1.203 3.38.2 4.475-.6.696-2.005.696-2.806.795-.803.1-2.206.299-2.707-.497-1.003-1.392.1-3.779-.1-5.37-.1-.895-4.111-.1-3.91.994.3 2.586-1.404 6.067 2.406 6.564 2.406.298 5.213-.199 7.519-.895 1.203-.398 2.305-.895 3.208-1.79 1.002-.895.702-2.287.4-3.48-.5-3.084.903-6.465-1.002-8.951ZM61.477 18.596c-.1-3.779-.702-7.458-.702-11.237 0-1.99-4.01-1.293-4.01.298 0 3.58.5 7.16.701 10.74v.2c-1.904 0-3.91.198-5.915.198.2-4.574-.601-9.149-.4-13.823 0-.597-3.91-.1-3.91.995-.201 4.475.6 8.85.5 13.326-.1 2.088-.2 4.276-.3 6.364 0 1.094.2 2.188.3 3.282.1.994.502 2.287.201 3.282-.2.795 3.61.298 3.91-.696.501-1.79-.2-3.978-.4-5.768-.201-1.691 0-3.481.1-5.172 2.004-.1 4.11-.298 6.115 0 .1 1.393.2 2.785.3 4.078.1 1.193.201 2.287.201 3.48 0 .995.1 2.487-.2 3.481-.802 2.088 3.107 1.89 3.709.398.702-1.89.501-4.177.401-6.166-.2-2.486-.602-4.873-.602-7.26ZM78.42 22.972c-.903-2.784-2.407-5.17-3.61-7.757a106.742 106.742 0 0 0 2.908-5.867c.802-1.79 1.403-3.779 3.108-5.072.601-.398.601-.895-.301-.994-.902-.1-2.105.199-2.807.696-1.404 1.293-2.406 2.685-3.108 4.376-.902 2.088-1.905 4.077-2.907 6.066-.1.1-.1.298-.201.398-.501.298-.802.795-.602 1.292a66.867 66.867 0 0 1-2.506 4.575c-.3-5.47-1.002-11.039-1.203-16.508 0-1.293-4.01-.497-3.91.994.2 6.862 1.203 13.625 1.303 20.486v.1c-.3.298-.2.497.1.597 0 1.79-.1 3.48-.2 5.27-.501.697.501 1.094 1.103 1.094h.1c.702 0 2.607-.298 2.707-1.392.2-2.088.3-4.177.2-6.265 1.605-1.69 2.908-3.58 4.111-5.57.802 1.492 1.504 2.984 2.005 4.575.902 2.685 2.306 5.271 3.108 7.956.501 1.79 4.511.696 3.91-.994-1.003-2.785-2.406-5.271-3.308-8.056ZM101.979 18.398c-.2-.796-1.403-.796-2.305-.796v-.994c-.1-2.685-.2-5.37-.402-7.956-.2-2.486-1.604-3.282-4.01-3.182-2.406.099-5.213.497-7.519 1.392-2.606.994-4.11 2.884-4.611 5.668-.502 2.984.2 6.166.4 9.15.201 3.48.1 6.96.1 10.442 0 .596 3.91 0 3.91-.995v-8.254c0-.796-.1-1.591-.1-2.387 1.404-.596 3.71 0 5.114.1 1.102.1 2.205-.2 3.208-.299 0 2.288.1 4.575.2 6.862 0 1.194.501 3.48-.4 4.475-.402.498 1.503.299 1.603.299.802-.1 1.805-.398 2.306-.995.902-1.094.501-3.779.401-5.072-.1-1.89-.1-3.779-.1-5.668 1.103-.2 2.406-.895 2.205-1.79Zm-14.637-.1c-.1-1.193-.2-2.486-.3-3.68-.201-2.287.1-5.568 2.305-6.96.602-.398 1.705-.299 2.406-.398 1.003-.2 2.005-.398 2.808.199 1.203.795.902 3.68.902 4.873 0 1.988.2 3.977.3 5.966-.6.1-1.102.1-1.704.1-2.306-.2-4.611-.597-6.717-.1ZM24.282 6.663c.501-.1 1.003-.199 1.504-.497l.2-.2c.502-.297 1.003-.795.702-1.391-.501-1.094-.4-2.188-.4-3.382C26.287.2 25.284 0 24.482 0c-.702.1-2.206.597-2.206 1.492 0 .994-.1 1.989.1 2.983 0 .1-.1.199-.1.398-.1.199 0 .398.1.597v.397c.1.2.2.398.401.498.602.298 1.103.298 1.504.298Z"/></svg>